<?xml version="1.0" encoding="UTF-8"?>
<svg id="Ebene_2" data-name="Ebene 2" xmlns="http://www.w3.org/2000/svg" viewBox="0 0 354.8 122.3">
  <defs>
    <style>
      .cls-1 {
        fill: #005fab;
      }

      .cls-1, .cls-2, .cls-3 {
        stroke-width: 0px;
      }

      .cls-2 {
        fill: #009662;
      }

      .cls-3 {
        fill: #1d1d1b;
      }
    </style>
  </defs>
  <g id="Ebene_1-2" data-name="Ebene 1">
    <g>
      <path class="cls-2" d="m62.2,43.2c3.2,17.5-7.8,36.5-21.7,47.3,10.4-3.9,21.6-10.4,32.2-19.3,26.9-22.5,39.7-51.5,28.6-64.7-1.9-2.2-4.3-3.9-7.3-4.9-15.7,6-34.9,24.7-31.8,41.7Z"/>
      <path class="cls-1" d="m46.6,44.7c.2-15.1,17.8-35.3,41-44.6-14.6-1.3-35.8,7.2-55,23.3C5.7,45.9-7.1,74.9,4,88.1c0,0,.2.2.2.3,14.3,1.1,42.1-18.2,42.3-43.7Z"/>
    </g>
    <rect class="cls-3" x="126.2" y="23.2" width="228" height=".8"/>
    <g>
      <path class="cls-3" d="m139.5,55.4l-1.4-4.3h-8.6l-1.5,4.3h-4.9l8.8-24.2h3.7l8.8,24.2h-4.9Zm-5.6-17.1l-3.1,8.8h6l-3-8.8Z"/>
      <path class="cls-3" d="m147.9,55.4v-24.2h4.7v24.2h-4.7Z"/>
      <path class="cls-3" d="m173.9,53.1c-1.6,1.6-3.9,2.3-6.4,2.3h-8.7v-24.2h8.7c2.5,0,4.8.7,6.4,2.3,2.7,2.7,2.4,6.1,2.4,9.7s.3,7.2-2.4,9.9Zm-3.3-16.2c-.8-1-1.9-1.5-3.5-1.5h-3.6v15.8h3.6c1.6,0,2.7-.5,3.5-1.5.9-1.1,1-2.8,1-6.5s-.1-5.2-1-6.3Z"/>
      <path class="cls-3" d="m181.7,55.4v-24.2h15.9v4.2h-11.2v5.7h9.6v4.2h-9.6v5.9h11.2v4.2h-15.9Z"/>
      <path class="cls-3" d="m211.2,55.4v-24.2h15.9v4.2h-11.2v5.7h9.6v4.2h-9.6v5.9h11.2v4.2h-15.9Z"/>
      <path class="cls-3" d="m241.5,35.4v20h-4.7v-20h-6.3v-4.2h17.4v4.2h-6.3Z"/>
      <path class="cls-3" d="m267.3,55.6c-3.7,0-6.5-.8-8.8-3.2l3.1-3.1c1.5,1.5,3.6,2,5.8,2s4.3-1.1,4.3-3-.2-1.6-.7-2c-.5-.4-1-.7-2.1-.9l-2.9-.4c-2.1-.3-3.6-1-4.7-2-1.2-1.2-1.7-2.7-1.7-4.8,0-4.3,3.2-7.3,8.4-7.3s5.7.8,7.8,2.8l-3,3c-1.5-1.5-3.4-1.7-5-1.7-2.5,0-3.7,1.4-3.7,3.1s.2,1.3.7,1.7c.5.4,1.3.8,2.2,1l2.9.4c2.2.3,3.6.9,4.6,1.9,1.3,1.2,1.9,3,1.9,5.1,0,4.7-3.9,7.3-9,7.3Z"/>
      <path class="cls-3" d="m295.9,53c-1.7,1.7-3.8,2.7-6.5,2.7s-4.9-1-6.6-2.7c-2.4-2.4-2.4-5.5-2.4-9.7s0-7.2,2.4-9.7c1.7-1.7,3.8-2.7,6.6-2.7s4.8,1,6.5,2.7c2.4,2.4,2.4,5.5,2.4,9.7s0,7.2-2.4,9.7Zm-3.5-16.5c-.7-.8-1.7-1.3-3-1.3s-2.4.5-3.1,1.3c-.9,1-1.2,2.1-1.2,6.8s.2,5.8,1.2,6.8c.7.8,1.8,1.3,3.1,1.3s2.3-.5,3-1.3c.9-1,1.2-2.1,1.2-6.8s-.3-5.8-1.2-6.8Z"/>
      <path class="cls-3" d="m303.6,55.4v-24.2h4.7v24.2h-4.7Z"/>
      <path class="cls-3" d="m328.8,55.4l-9.6-14.9v14.9h-4.7v-24.2h4.2l9.6,14.8v-14.8h4.7v24.2h-4.2Z"/>
      <path class="cls-3" d="m345.8,55.6c-3.7,0-6.5-.8-8.8-3.2l3.1-3.1c1.5,1.5,3.6,2,5.8,2s4.3-1.1,4.3-3-.2-1.6-.7-2c-.5-.4-1-.7-2.1-.9l-2.9-.4c-2.1-.3-3.6-1-4.7-2-1.2-1.2-1.7-2.7-1.7-4.8,0-4.3,3.2-7.3,8.4-7.3s5.7.8,7.8,2.8l-3,3c-1.5-1.5-3.4-1.7-5-1.7-2.5,0-3.7,1.4-3.7,3.1s.2,1.3.7,1.7c.5.4,1.3.8,2.2,1l2.9.4c2.2.3,3.6.9,4.6,1.9,1.3,1.2,1.9,3,1.9,5.1,0,4.7-3.9,7.3-9,7.3Z"/>
      <path class="cls-3" d="m139.5,92.4l-1.4-4.3h-8.6l-1.5,4.3h-4.9l8.8-24.2h3.7l8.8,24.2h-4.9Zm-6.9-26.6l-3.9-5.8h4.7l2.2,5.8h-3Zm1.3,9.5l-3.1,8.8h6l-3-8.8Z"/>
      <path class="cls-3" d="m171.4,90.1c-1.6,1.6-3.9,2.3-6.4,2.3h-8.7v-24.2h8.7c2.5,0,4.8.7,6.4,2.3,2.7,2.7,2.4,6.1,2.4,9.7s.3,7.2-2.4,9.9Zm-3.3-16.2c-.8-1-1.9-1.5-3.5-1.5h-3.6v15.8h3.6c1.6,0,2.7-.5,3.5-1.5.9-1.1,1-2.8,1-6.5s-.1-5.2-1-6.3Z"/>
      <path class="cls-3" d="m193.9,90c-1.7,1.7-3.8,2.7-6.5,2.7s-4.9-1-6.6-2.7c-2.4-2.4-2.4-5.5-2.4-9.7s0-7.2,2.4-9.7c1.7-1.7,3.8-2.7,6.6-2.7s4.8,1,6.5,2.7c2.4,2.4,2.4,5.5,2.4,9.7s0,7.2-2.4,9.7Zm-3.5-16.5c-.7-.8-1.7-1.3-3-1.3s-2.4.5-3.1,1.3c-.9,1-1.2,2.1-1.2,6.8s.2,5.8,1.2,6.8c.7.8,1.8,1.3,3.1,1.3s2.3-.5,3-1.3c.9-1,1.2-2.1,1.2-6.8s-.3-5.8-1.2-6.8Z"/>
      <path class="cls-3" d="m218.8,92.4v-14.1l-4.6,9.2h-3.2l-4.7-9.2v14.1h-4.7v-24.2h4.7l6.3,13.1,6.3-13.1h4.7v24.2h-4.7Z"/>
      <path class="cls-3" d="m229.7,92.4v-24.2h4.7v24.2h-4.7Z"/>
      <path class="cls-3" d="m248.7,92.6c-2.6,0-4.8-.9-6.5-2.7-1.1-1.1-1.7-2.3-2-3.6-.3-1.4-.4-3.4-.4-6s.1-4.7.4-6c.3-1.4.9-2.6,2-3.6,1.8-1.8,3.9-2.7,6.5-2.7,4.7,0,8.1,2.7,8.9,7.6h-4.8c-.5-2.1-1.8-3.4-4.1-3.4s-2.3.4-3,1.3c-1,1.1-1.2,2.1-1.2,6.8s.2,5.8,1.2,6.8c.7.8,1.7,1.3,3,1.3,2.3,0,3.6-1.4,4.1-3.4h4.8c-.8,4.9-4.3,7.6-8.9,7.6Z"/>
      <path class="cls-3" d="m262.2,92.4v-24.2h4.7v24.2h-4.7Z"/>
      <path class="cls-3" d="m273.1,92.4v-24.2h4.7v20h11v4.2h-15.7Z"/>
      <path class="cls-3" d="m293.1,92.4v-24.2h15.9v4.2h-11.2v5.7h9.6v4.2h-9.6v5.9h11.2v4.2h-15.9Z"/>
    </g>
    <g>
      <path class="cls-2" d="m285.1,122.3c-2.2,0-3.8-.5-5.2-1.9l1.8-1.8c.9.9,2.1,1.2,3.4,1.2s2.5-.6,2.5-1.8-.1-.9-.4-1.2c-.3-.3-.6-.4-1.3-.5l-1.7-.2c-1.2-.2-2.1-.6-2.8-1.2-.7-.7-1-1.6-1-2.8,0-2.5,1.9-4.3,5-4.3s3.4.5,4.6,1.7l-1.8,1.7c-.9-.9-2-1-2.9-1-1.5,0-2.2.8-2.2,1.8s.1.7.4,1c.3.3.7.5,1.3.6l1.7.2c1.3.2,2.1.5,2.7,1.1.8.7,1.1,1.8,1.1,3,0,2.8-2.3,4.3-5.3,4.3Z"/>
      <path class="cls-2" d="m301.8,122.2v-1c-.7.7-1.6,1.1-2.6,1.1s-1.9-.3-2.5-.9c-.8-.8-1.1-1.8-1.1-3v-6.7h2.6v6.3c0,1.4.9,1.9,1.7,1.9s1.7-.5,1.7-1.9v-6.3h2.6v10.4h-2.5Z"/>
      <path class="cls-2" d="m310.2,110v-2.1h2.7v2.1h-2.7Zm0,12.2v-10.4h2.6v10.4h-2.6Z"/>
      <path class="cls-2" d="m322.2,122.3c-1.6,0-3.1-.2-4.4-1.5l1.7-1.7c.9.9,2,1,2.8,1s1.8-.3,1.8-1.1-.3-.9-1.1-1l-1.6-.2c-1.9-.2-3-1-3-2.9s1.9-3.3,4-3.3,3,.3,4,1.2l-1.6,1.6c-.6-.5-1.5-.7-2.4-.7s-1.5.5-1.5,1,.2.8,1.1.9l1.6.2c2.1.2,3.1,1.3,3.1,3.1s-2,3.4-4.4,3.4Z"/>
      <path class="cls-2" d="m335.1,122.3c-1.6,0-3.1-.2-4.4-1.5l1.7-1.7c.9.9,2,1,2.8,1s1.8-.3,1.8-1.1-.3-.9-1.1-1l-1.6-.2c-1.9-.2-3-1-3-2.9s1.9-3.3,4-3.3,3,.3,4,1.2l-1.6,1.6c-.6-.5-1.5-.7-2.4-.7s-1.5.5-1.5,1,.2.8,1.1.9l1.6.2c2.1.2,3.1,1.3,3.1,3.1s-2,3.4-4.4,3.4Z"/>
      <path class="cls-2" d="m346.7,117.8c0,1.3.8,2.3,2.3,2.3s1.7-.3,2.4-1l1.6,1.5c-1.1,1.1-2.1,1.6-4,1.6s-4.8-1.1-4.8-5.3,1.8-5.3,4.5-5.3,4.5,2.1,4.5,5v1.2h-6.5Zm3.7-2.9c-.3-.6-.9-1.1-1.7-1.1s-1.5.5-1.7,1.1c-.2.4-.2.7-.2,1.1h4c0-.5,0-.7-.2-1.1Z"/>
    </g>
    <g>
      <path class="cls-3" d="m132.3,11.2c-.6.6-1.3.8-2.3.8h-2.7v4.2h-1.1V6h3.8c.9,0,1.7.3,2.3.8.6.5.9,1.3.9,2.2s-.3,1.6-.9,2.2Zm-.8-3.7c-.4-.3-.9-.5-1.6-.5h-2.6v4.1h2.6c.7,0,1.2-.2,1.6-.5s.6-.9.6-1.5-.2-1.2-.6-1.5Z"/>
      <path class="cls-3" d="m139.9,15.5c-.5.5-1.2.8-2,.8s-1.5-.3-2-.8c-.6-.6-.9-1.5-.9-2.8s.3-2.2.9-2.8c.5-.5,1.2-.8,2-.8s1.5.3,2,.8c.6.6.9,1.5.9,2.8s-.3,2.2-.9,2.8Zm-.7-5c-.3-.3-.8-.5-1.3-.5s-.9.2-1.3.5-.6,1.1-.6,2.2.2,1.8.6,2.2c.3.3.8.5,1.3.5s1-.2,1.3-.5.6-1.1.6-2.2-.2-1.8-.6-2.2Z"/>
      <path class="cls-3" d="m147.8,16.2v-.8c-.5.6-1.2.9-2,.9s-1.4-.2-1.8-.7c-.5-.5-.7-1.1-.7-2v-4.5h1v4.4c0,.6.2,1.1.5,1.4.3.3.7.5,1.3.5s1-.2,1.3-.5c.3-.3.5-.8.5-1.4v-4.4h1v7.1h-1Z"/>
      <path class="cls-3" d="m155.7,10.5c-.2-.2-.4-.3-.6-.4-.2,0-.4-.1-.7-.1-.5,0-.9.2-1.2.5-.3.4-.5.8-.5,1.4v4.3h-1v-7.1h1v.9c.2-.3.5-.5.8-.7.4-.2.7-.3,1.2-.3.7,0,1.3.2,1.7.7l-.8.8Z"/>
      <path class="cls-3" d="m164.5,16.2h-.9l-2.6-7.1h1.1l1.9,5.7,1.9-5.7h1.1l-2.6,7.1Z"/>
      <path class="cls-3" d="m173.3,15.5c-.5.5-1.2.8-2,.8s-1.5-.3-2-.8c-.6-.6-.9-1.5-.9-2.8s.3-2.2.9-2.8c.5-.5,1.2-.8,2-.8s1.5.3,2,.8c.6.6.9,1.5.9,2.8s-.3,2.2-.9,2.8Zm-.7-5c-.3-.3-.8-.5-1.3-.5s-.9.2-1.3.5-.6,1.1-.6,2.2.2,1.8.6,2.2c.3.3.8.5,1.3.5s1-.2,1.3-.5.6-1.1.6-2.2-.2-1.8-.6-2.2Z"/>
      <path class="cls-3" d="m181.2,16.2v-.8c-.5.6-1.2.9-2,.9s-1.4-.2-1.8-.7c-.5-.5-.7-1.1-.7-2v-4.5h1v4.4c0,.6.2,1.1.5,1.4.3.3.7.5,1.3.5s1-.2,1.3-.5c.3-.3.5-.8.5-1.4v-4.4h1v7.1h-1Z"/>
      <path class="cls-3" d="m189.5,15.7c-.5.4-1.2.6-2.1.6s-2.2-.3-2.9-1l.7-.7c.5.5,1.3.8,2.2.8s1.1-.1,1.4-.3c.3-.2.5-.5.5-.9,0-.6-.4-1-1.2-1h-1.2c-1.4-.2-2.1-.9-2.1-2s.2-1.1.7-1.5c.5-.4,1.1-.6,1.9-.6s1.9.3,2.5.8l-.7.7c-.5-.4-1.1-.6-1.9-.6s-.9.1-1.2.3c-.3.2-.4.5-.4.9,0,.6.4,1,1.2,1h1.1c.7.2,1.2.3,1.5.6.4.3.5.8.5,1.4s-.3,1.2-.8,1.6Z"/>
      <path class="cls-3" d="m196.1,12.8v-1h6v1h-6Z"/>
      <path class="cls-3" d="m212.5,16.1c-.3.2-.8.2-1.3.2-.9,0-1.7-.3-2.3-.9s-.9-1.5-.9-2.7.3-2.1.9-2.7,1.3-.9,2.3-.9.9,0,1.3.2c.3.2.7.4,1.1.8l-.7.7c-.3-.3-.5-.5-.8-.6s-.5-.2-.9-.2c-.7,0-1.3.3-1.6.8-.3.4-.5,1.1-.5,1.9s.2,1.5.5,1.9c.4.5.9.8,1.6.8s.6,0,.9-.2.5-.3.8-.6l.7.7c-.4.4-.7.7-1.1.8Z"/>
      <path class="cls-3" d="m220.4,16.2v-4.4c0-.6-.2-1.1-.5-1.4-.3-.3-.7-.5-1.3-.5s-1,.2-1.3.5c-.3.3-.5.8-.5,1.4v4.4h-1V6h1v3.9c.5-.6,1.2-.9,2-.9s1.4.2,1.9.7c.5.5.7,1.1.7,1.9v4.6h-1Z"/>
      <path class="cls-3" d="m225,13c0,.8.2,1.4.5,1.8.4.4.9.6,1.5.6s.7,0,1-.2c.3-.1.6-.3.8-.6l.7.6c-.4.4-.8.7-1.2.8-.4.2-.9.3-1.4.3-1,0-1.7-.3-2.3-.9-.5-.6-.8-1.5-.8-2.7s.3-2,.8-2.7,1.2-1,2.1-1,1.6.3,2.1.9c.5.6.8,1.5.8,2.5v.5h-4.8Zm3.5-2c-.1-.3-.4-.6-.6-.8-.3-.2-.6-.3-1-.3s-.7,0-1,.3c-.3.2-.5.5-.6.8-.1.3-.2.7-.2,1.2h3.7c0-.5-.1-.9-.2-1.2Z"/>
      <path class="cls-3" d="m231.8,16.2v-.9l3.9-5.3h-3.7v-.9h4.9v.9l-4,5.3h4v.9h-5.1Z"/>
      <path class="cls-3" d="m245.6,16.2h-.9l-2.6-7.1h1.1l1.9,5.7,1.9-5.7h1.1l-2.6,7.1Z"/>
      <path class="cls-3" d="m254.5,15.5c-.5.5-1.2.8-2,.8s-1.5-.3-2-.8c-.6-.6-.9-1.5-.9-2.8s.3-2.2.9-2.8c.5-.5,1.2-.8,2-.8s1.5.3,2,.8c.6.6.9,1.5.9,2.8s-.3,2.2-.9,2.8Zm-.7-5c-.3-.3-.8-.5-1.3-.5s-.9.2-1.3.5-.6,1.1-.6,2.2.2,1.8.6,2.2c.3.3.8.5,1.3.5s1-.2,1.3-.5.6-1.1.6-2.2-.2-1.8-.6-2.2Z"/>
      <path class="cls-3" d="m262.4,16.2v-.8c-.5.6-1.2.9-2,.9s-1.4-.2-1.8-.7c-.5-.5-.7-1.1-.7-2v-4.5h1v4.4c0,.6.2,1.1.5,1.4.3.3.7.5,1.3.5s1-.2,1.3-.5c.3-.3.5-.8.5-1.4v-4.4h1v7.1h-1Z"/>
      <path class="cls-3" d="m270.7,15.7c-.5.4-1.2.6-2.1.6s-2.2-.3-2.9-1l.7-.7c.5.5,1.3.8,2.2.8s1.1-.1,1.4-.3c.3-.2.5-.5.5-.9,0-.6-.4-1-1.2-1h-1.2c-1.4-.2-2.1-.9-2.1-2s.2-1.1.7-1.5c.5-.4,1.1-.6,1.9-.6s1.9.3,2.5.8l-.7.7c-.5-.4-1.1-.6-1.9-.6s-.9.1-1.2.3c-.3.2-.4.5-.4.9,0,.6.4,1,1.2,1h1.1c.7.2,1.2.3,1.5.6.4.3.5.8.5,1.4s-.3,1.2-.8,1.6Z"/>
    </g>
  </g>
</svg>